# xmcd
#
# Track frame offsets: 
#        150
#        14833
#        36544
#        50566
#        69427
#        88285
#        109295
#        129776
#        152732
#        165552
#        187408
#        203695
#
# Disc length: 2854 seconds
#
# Revision: 0
# Processed by: cddbd v1.5.2PL0 Copyright (c) Steve Scherf et al.
# Submitted via: ExactAudioCopy v0.99pb3
#
DISCID=af0b240c
DTITLE=Bob Malone - Born Too Late
DYEAR=2006
DGENRE=Blues
TTITLE0=The Stripper
TTITLE1=The Age Of Steam
TTITLE2=The Brush
TTITLE3=So What If It's Halloween
TTITLE4=Hearing With My Heart
TTITLE5=Home To Me
TTITLE6=Nasty Little Town
TTITLE7=Morning Desires
TTITLE8=Chicks
TTITLE9=I'm In Love With The Woman (The Other Women Love To Hate)
TTITLE10=You Can't Have One Without The Other
TTITLE11=Gaslight Fantasie
EXTD=
EXTT0=
EXTT1=
EXTT2=
EXTT3=
EXTT4=
EXTT5=
EXTT6=
EXTT7=
EXTT8=
EXTT9=
EXTT10=
EXTT11=
PLAYORDER=
